<svg width="528.3" height="84.4" viewBox="0 0 528.3 84.4" xmlns="http://www.w3.org/2000/svg"><g id="svgGroup" stroke-linecap="round" fill-rule="evenodd" font-size="9pt" stroke="#fed136" stroke-width="0.25mm" fill="#fed136" style="stroke:#fed136 ;stroke-width:0.25mm;fill:#fed136"><path d="M 292.8 24.9 L 274.7 52.7 Q 277.332 52.782 283.379 53.372 A 508.317 508.317 0 0 1 286.15 53.65 A 265.994 265.994 0 0 0 290.019 54.022 Q 293.744 54.351 296.379 54.453 A 56.182 56.182 0 0 0 298.55 54.5 A 274.435 274.435 0 0 0 300.234 54.495 Q 302.519 54.481 303.664 54.426 A 19.361 19.361 0 0 0 304.1 54.4 L 307.9 48.1 Q 317.6 31.8 330.35 17.65 A 121.017 121.017 0 0 1 337.08 10.716 Q 343.974 4.199 349.771 1.315 A 26.13 26.13 0 0 1 352.6 0.1 A 1.89 1.89 0 0 1 353.191 0 A 1.801 1.801 0 0 1 353.2 0 Q 353.9 0 353.9 0.8 A 0.541 0.541 0 0 1 353.728 1.197 A 0.862 0.862 0 0 1 353.6 1.3 Q 347.2 4.9 335.25 18.75 A 205.731 205.731 0 0 0 317.977 41.752 A 185.088 185.088 0 0 0 314.6 47.2 L 310.7 53.8 A 24.018 24.018 0 0 0 313.082 53.376 Q 315.863 52.722 317.3 51.5 A 0.572 0.572 0 0 1 317.391 51.443 Q 317.698 51.293 317.943 51.737 A 1.779 1.779 0 0 1 318 51.85 Q 318.3 52.5 317.9 52.8 A 13.826 13.826 0 0 1 315.081 54.44 Q 313.66 55.071 311.923 55.538 A 31.27 31.27 0 0 1 309.4 56.1 A 137.294 137.294 0 0 0 306.672 61.419 Q 302.913 69.198 302.462 73.338 A 9.826 9.826 0 0 0 302.4 74.4 A 5.803 5.803 0 0 0 302.528 75.678 Q 302.932 77.459 304.61 77.745 A 4.105 4.105 0 0 0 305.3 77.8 Q 306.774 77.8 308.6 77.067 A 16.603 16.603 0 0 0 309.95 76.45 Q 312.6 75.1 313.5 74.15 Q 314.325 73.28 314.562 73.207 A 0.133 0.133 0 0 1 314.6 73.2 A 0.105 0.105 0 0 1 314.698 73.267 Q 314.768 73.409 314.7 73.85 Q 314.618 74.386 314.399 74.752 A 1.69 1.69 0 0 1 314.3 74.9 A 14.266 14.266 0 0 1 312.966 75.998 Q 311.506 77.07 309.343 78.224 A 47.211 47.211 0 0 1 309.2 78.3 A 24.044 24.044 0 0 1 307.39 79.17 Q 305.575 79.944 304.225 80.074 A 5.49 5.49 0 0 1 303.7 80.1 A 10.047 10.047 0 0 1 302.606 80.045 Q 301.319 79.903 300.6 79.4 Q 297.716 77.507 297.431 73.096 A 15.476 15.476 0 0 1 297.4 72.1 A 15.056 15.056 0 0 1 297.819 68.795 Q 298.891 64.088 302.7 56.9 A 93.792 93.792 0 0 1 298.483 57.151 A 75.002 75.002 0 0 1 295.8 57.2 A 34.545 34.545 0 0 1 295.192 57.189 Q 291.9 57.113 272.3 56.5 A 231.152 231.152 0 0 0 266.623 65.917 Q 263.319 71.725 260.9 76.9 Q 259.6 79.6 257.75 79.6 Q 256.082 79.6 255.918 78.381 A 2.105 2.105 0 0 1 255.9 78.1 A 5.273 5.273 0 0 1 256.304 76.484 Q 258.056 71.756 267.4 56.4 A 152.648 152.648 0 0 0 264.076 56.434 Q 258.609 56.553 256.5 57.1 A 12.626 12.626 0 0 0 253.223 58.373 A 9.797 9.797 0 0 0 249.8 61.6 A 7.544 7.544 0 0 1 249.462 62.034 Q 248.905 62.692 248.487 62.792 A 0.692 0.692 0 0 1 248.45 62.8 A 1.016 1.016 0 0 1 248.374 62.811 Q 247.9 62.86 247.9 62.35 A 1.295 1.295 0 0 1 248.288 61.413 A 1.637 1.637 0 0 1 248.3 61.4 A 35.906 35.906 0 0 1 250.783 58.398 Q 252.088 56.995 253.381 55.976 A 14.995 14.995 0 0 1 255.8 54.4 A 13.171 13.171 0 0 1 258.454 53.419 Q 261.938 52.5 267.5 52.5 L 269.9 52.5 A 407.545 407.545 0 0 0 273.256 47.288 Q 277.033 41.332 282.113 32.984 A 1752.718 1752.718 0 0 0 287 24.9 A 53.93 53.93 0 0 0 288.982 20.798 Q 290.746 16.676 291.041 13.594 A 12.555 12.555 0 0 0 291.1 12.4 Q 291.1 5.311 283.133 4.664 A 20.384 20.384 0 0 0 281.7 4.6 L 280.6 4.6 Q 267.8 4.6 257.3 11 A 53.119 53.119 0 0 0 245.443 20.702 A 47.465 47.465 0 0 0 240.7 26.9 Q 234.6 36.4 234.6 44 A 14.383 14.383 0 0 0 235.009 47.595 Q 236.486 53.3 243.3 53.3 A 14.082 14.082 0 0 0 253.438 49.038 A 20.461 20.461 0 0 0 255.1 47.2 Q 258.491 42.979 259.535 39.045 A 13.389 13.389 0 0 0 260 35.6 A 9.878 9.878 0 0 0 259.756 33.346 A 7.065 7.065 0 0 0 258.4 30.5 A 0.675 0.675 0 0 1 258.2 30.019 A 0.886 0.886 0 0 1 258.2 30 A 1.211 1.211 0 0 1 258.2 29.989 Q 258.206 29.3 259 29.3 A 0.843 0.843 0 0 1 259.251 29.336 A 0.637 0.637 0 0 1 259.6 29.6 A 9.627 9.627 0 0 1 261.56 34.807 A 12.248 12.248 0 0 1 261.6 35.8 Q 261.6 41.273 257.575 46.948 A 32.524 32.524 0 0 1 256.6 48.25 Q 253.385 52.333 249.964 54.08 A 11.711 11.711 0 0 1 246.1 55.3 A 19.387 19.387 0 0 1 243.404 55.59 A 17.378 17.378 0 0 1 242.8 55.6 A 15.976 15.976 0 0 1 238.658 55.093 A 11.19 11.19 0 0 1 232.9 51.5 A 12.448 12.448 0 0 1 229.983 45.88 Q 229.53 44 229.502 41.796 A 23.009 23.009 0 0 1 229.5 41.5 A 24.233 24.233 0 0 1 230.025 36.548 A 26.911 26.911 0 0 1 230.1 36.2 A 34.302 34.302 0 0 1 237.817 21.188 Q 241.732 16.624 247.45 12.6 Q 261.8 2.5 279.7 2.5 A 27.107 27.107 0 0 1 285.364 3.065 A 20.239 20.239 0 0 1 291.55 5.45 A 11.44 11.44 0 0 1 294.317 7.697 A 8.778 8.778 0 0 1 296.5 13.7 A 17.374 17.374 0 0 1 295.546 19.238 Q 294.621 21.996 292.8 24.9 Z M 197.9 39.3 L 209.7 41.5 Q 216.273 42.704 219.761 44.765 A 13.316 13.316 0 0 1 220.3 45.1 Q 224.9 47.9 224.9 53.1 A 14.373 14.373 0 0 1 224.679 55.558 A 18.758 18.758 0 0 1 224.2 57.6 Q 221.147 67.904 208.9 73.566 A 46.682 46.682 0 0 1 207.7 74.1 Q 196.925 78.857 182.381 78.996 A 91.992 91.992 0 0 1 181.5 79 Q 178.04 79 175.292 78.741 A 42.816 42.816 0 0 1 174 78.6 A 23.897 23.897 0 0 0 176.681 79.88 Q 178.147 80.478 179.888 81.008 A 51.925 51.925 0 0 0 182.4 81.7 Q 182.599 81.75 182.699 81.85 A 0.339 0.339 0 0 1 182.8 82.1 A 0.673 0.673 0 0 1 182.416 82.705 Q 181.902 83 180.7 83 A 9.111 9.111 0 0 1 177.794 82.473 Q 174.598 81.392 170.5 78.1 Q 165.249 77.278 161.679 75.655 A 16.704 16.704 0 0 1 158.1 73.5 Q 155.987 71.793 154.137 68.765 A 30.321 30.321 0 0 1 153.3 67.3 Q 151.687 64.293 151.256 61.717 A 11.027 11.027 0 0 1 151.1 59.9 Q 151.1 57.04 152.077 55.006 A 7.981 7.981 0 0 1 152.4 54.4 A 14.377 14.377 0 0 1 154.16 51.898 Q 155.404 50.505 156.858 49.805 A 7.153 7.153 0 0 1 160 49.1 Q 163.404 49.1 164.065 54.682 A 19.433 19.433 0 0 1 164.1 55 Q 165.344 65.128 165.877 67.521 A 6.2 6.2 0 0 0 166 68 Q 167.5 72.9 171.1 76.3 A 40.317 40.317 0 0 0 176.623 77.074 A 49.282 49.282 0 0 0 180.2 77.2 Q 191 77.2 201.4 72.9 Q 211.8 68.6 216.4 60.7 A 17.131 17.131 0 0 0 217.402 58.831 Q 217.851 57.841 218.076 56.933 A 7.218 7.218 0 0 0 218.3 55.2 Q 218.3 50.949 211.509 48.416 A 29.867 29.867 0 0 0 210 47.9 L 192.4 43.9 A 23.904 23.904 0 0 1 188.367 42.563 Q 185.68 41.381 183.75 39.6 A 11.034 11.034 0 0 1 181.707 37.119 A 8.535 8.535 0 0 1 180.5 32.7 A 10.857 10.857 0 0 1 181.936 27.45 Q 182.909 25.67 184.542 23.891 A 30.779 30.779 0 0 1 188 20.7 A 37.615 37.615 0 0 1 195.894 15.855 A 48.777 48.777 0 0 1 201.95 13.55 A 56.433 56.433 0 0 1 214.094 11.165 A 50.43 50.43 0 0 1 218.15 11 A 45.351 45.351 0 0 1 223.618 11.31 Q 226.362 11.644 228.677 12.338 A 22.323 22.323 0 0 1 231.3 13.3 A 15.491 15.491 0 0 1 234.463 15.209 A 8.754 8.754 0 0 1 238 22.35 A 8.871 8.871 0 0 1 237.195 26.205 Q 235.784 29.172 231.9 30.7 A 26.16 26.16 0 0 1 229.487 31.552 Q 228.321 31.896 227.282 32.058 A 11.303 11.303 0 0 1 225.55 32.2 A 9.757 9.757 0 0 1 224.717 32.168 Q 222.9 32.011 222.9 31.1 Q 222.9 30.4 225.85 30.3 Q 228.8 30.2 230.1 29.6 A 8.313 8.313 0 0 0 232.104 28.165 A 6.034 6.034 0 0 0 233.9 23.7 A 8.211 8.211 0 0 0 233.552 21.387 A 11.383 11.383 0 0 0 232.8 19.5 Q 229.6 13.8 217.3 13.8 Q 210.2 13.8 203.1 15.95 A 32.931 32.931 0 0 0 196.022 18.99 A 27.285 27.285 0 0 0 191.2 22.55 Q 186.4 27 186.4 30.8 A 5.807 5.807 0 0 0 188.523 35.212 Q 190.653 37.138 194.918 38.487 A 40.857 40.857 0 0 0 197.9 39.3 Z M 16.1 51.5 L 22.4 63.7 Q 27.7 56.7 33.5 48.4 Q 28.406 46.102 26.477 42.53 A 9.996 9.996 0 0 1 25.3 37.7 A 11.156 11.156 0 0 1 28.963 29.174 A 14.221 14.221 0 0 1 30 28.3 A 10.015 10.015 0 0 1 32.861 26.818 A 8.777 8.777 0 0 1 35.55 26.4 A 4.414 4.414 0 0 1 39.159 28.144 A 7.121 7.121 0 0 1 40 29.5 A 2.525 2.525 0 0 1 40.072 29.655 Q 40.2 29.964 40.149 30.125 A 0.22 0.22 0 0 1 40.05 30.25 Q 39.852 30.369 39.748 30.331 A 0.131 0.131 0 0 1 39.7 30.3 A 7.925 7.925 0 0 0 38.232 29.126 A 5.36 5.36 0 0 0 35.4 28.3 L 35.2 28.3 A 5.251 5.251 0 0 0 31.792 29.572 Q 30.923 30.286 30.15 31.4 A 15.508 15.508 0 0 0 28.971 33.381 Q 28 35.353 28 37.1 L 28 37.7 Q 28 41.796 32.466 44.961 A 22.566 22.566 0 0 0 35.2 46.6 Q 36.305 45.035 38.64 41.561 A 856.106 856.106 0 0 0 39.05 40.95 Q 41.7 37 43.2 34.8 A 178.206 178.206 0 0 1 51.008 24.142 Q 65.781 5.6 76.3 5.6 A 14.383 14.383 0 0 1 79.895 6.009 Q 85.6 7.486 85.6 14.3 A 20.502 20.502 0 0 1 84.562 20.479 Q 82.886 25.77 78.506 32.045 A 73.018 73.018 0 0 1 77.9 32.9 A 42.914 42.914 0 0 1 64.376 45.074 A 51.07 51.07 0 0 1 61.95 46.4 A 54.23 54.23 0 0 1 54.705 49.508 Q 48.85 51.5 43.6 51.5 A 22.831 22.831 0 0 1 41.416 51.402 Q 40.351 51.299 39.439 51.09 A 11.241 11.241 0 0 1 38.4 50.8 A 498.883 498.883 0 0 1 35.981 53.881 Q 32.08 58.816 25.588 66.85 A 3268.315 3268.315 0 0 1 24.9 67.7 A 19.361 19.361 0 0 0 28.059 71.142 Q 31.388 74.047 36.795 76.731 A 66.935 66.935 0 0 0 37.55 77.1 A 58.547 58.547 0 0 0 43.28 79.514 Q 46.16 80.538 48.734 81.034 A 24.173 24.173 0 0 0 53.3 81.5 A 38.687 38.687 0 0 0 56.744 81.358 Q 60.16 81.051 62.331 80.085 A 9.196 9.196 0 0 0 63.1 79.7 A 10.045 10.045 0 0 0 65.325 78.158 A 6.644 6.644 0 0 0 67.5 73.1 A 10.918 10.918 0 0 0 67.368 71.379 A 9.806 9.806 0 0 0 67.3 71 Q 67.131 70.153 67.715 70.023 A 1.091 1.091 0 0 1 67.95 70 A 1.076 1.076 0 0 1 68.632 70.258 Q 68.996 70.549 69.315 71.169 A 5.768 5.768 0 0 1 69.45 71.45 A 9.259 9.259 0 0 1 69.82 72.406 Q 70.1 73.278 70.1 74 Q 70.1 77.5 66.4 80.6 A 16.01 16.01 0 0 1 60.649 83.509 Q 58.305 84.177 55.512 84.344 A 32.008 32.008 0 0 1 53.6 84.4 Q 45.5 84.4 36.8 80.6 Q 28.1 76.8 22.5 70.3 A 39.767 39.767 0 0 1 18.063 74.167 Q 15.618 75.975 13.253 76.992 A 15.008 15.008 0 0 1 7.3 78.3 Q 5.1 78.3 3.5 77.5 Q 0 75.5 0 69.9 A 17.457 17.457 0 0 1 0.549 65.743 Q 1.598 61.481 4.65 56.1 A 66.611 66.611 0 0 1 6.325 53.296 Q 9.806 47.806 12 47.4 A 2.118 2.118 0 0 1 13.128 47.771 Q 14.492 48.633 16.1 51.5 Z M 388.5 55.9 L 394.9 45.5 A 78.432 78.432 0 0 0 383.468 55.71 A 72.733 72.733 0 0 0 382.8 56.45 A 239.499 239.499 0 0 0 376.546 63.751 A 200.916 200.916 0 0 0 373.15 68 A 151.575 151.575 0 0 1 372.12 69.313 Q 368.76 73.54 368.118 73.599 A 0.193 0.193 0 0 1 368.1 73.6 A 2.868 2.868 0 0 1 366.921 73.365 Q 366.307 73.092 365.858 72.5 A 3.539 3.539 0 0 1 365.75 72.35 A 4.78 4.78 0 0 1 365.03 70.604 A 6.72 6.72 0 0 1 364.9 69.25 A 7.216 7.216 0 0 1 365.027 67.972 Q 365.267 66.649 365.96 64.89 A 29.38 29.38 0 0 1 366.2 64.3 Q 367.5 61.2 369.5 56.8 L 363.5 63.1 Q 361.461 65.139 360.839 65.288 A 0.386 0.386 0 0 1 360.75 65.3 Q 360.2 65.3 360.2 64.65 A 1.299 1.299 0 0 1 360.313 64.142 Q 360.481 63.746 360.9 63.303 A 5.255 5.255 0 0 1 361 63.2 Q 364.7 59.5 367.4 56.1 A 107.219 107.219 0 0 1 368.801 54.316 Q 371.076 51.471 375.318 46.408 A 1273.019 1273.019 0 0 1 378.1 43.1 Q 378.618 42.41 379.169 42.116 A 1.75 1.75 0 0 1 380 41.9 A 5.092 5.092 0 0 1 380.985 41.987 Q 382.7 42.327 382.7 44 A 2.554 2.554 0 0 1 382.524 44.919 A 3.136 3.136 0 0 1 382.4 45.2 Q 373.4 57.7 371.6 64.1 Q 392.946 42.755 398.932 40.964 A 3.433 3.433 0 0 1 399.9 40.8 Q 400.356 40.709 400.729 40.701 A 3.308 3.308 0 0 1 400.8 40.7 A 4.567 4.567 0 0 1 401.857 40.811 Q 403.6 41.227 403.6 43.2 Q 403.6 43.7 403.4 44.2 A 2.15 2.15 0 0 1 403.225 44.502 Q 402.567 45.511 399.589 49.357 A 500.164 500.164 0 0 1 399.4 49.6 Q 395 54.8 391.95 59.6 A 30.011 30.011 0 0 0 390.476 62.174 Q 388.9 65.3 388.9 67.6 Q 388.9 70.373 389.952 70.743 A 1.043 1.043 0 0 0 390.3 70.8 Q 394.014 70.8 402.359 62.179 A 133.028 133.028 0 0 0 405.6 58.7 Q 405.763 58.537 406.127 58.04 A 26.256 26.256 0 0 0 406.3 57.8 Q 407.543 56.309 407.962 56.053 A 0.293 0.293 0 0 1 408.1 56 A 0.19 0.19 0 0 1 408.262 56.104 Q 408.373 56.279 408.395 56.749 A 5.404 5.404 0 0 1 408.4 57 A 1.973 1.973 0 0 1 408.27 57.665 Q 408.055 58.263 407.482 59.013 A 11.359 11.359 0 0 1 407 59.6 Q 396.968 71.007 391.649 73.186 A 6.026 6.026 0 0 1 389.4 73.7 A 6.341 6.341 0 0 1 387.374 73.404 Q 384.553 72.454 384.501 68.453 A 11.65 11.65 0 0 1 384.5 68.3 A 17.934 17.934 0 0 1 385.154 63.672 Q 385.696 61.646 386.687 59.44 A 41.132 41.132 0 0 1 388.5 55.9 Z M 107.274 71.999 A 10.297 10.297 0 0 0 114.1 74.7 Q 117.845 74.7 122.777 71.626 A 43.353 43.353 0 0 0 126.5 69 Q 131.3 65.2 136.7 58.6 Q 137.203 57.881 137.345 57.395 A 1.246 1.246 0 0 0 137.4 57.05 A 0.81 0.81 0 0 0 137.377 56.846 Q 137.312 56.597 137.068 56.527 A 0.792 0.792 0 0 0 136.85 56.5 Q 136.3 56.5 135.6 57.2 A 90.826 90.826 0 0 1 133.519 59.592 Q 131.246 62.112 129.044 64.142 A 46.794 46.794 0 0 1 124.45 67.9 Q 119.1 71.7 115.7 71.7 Q 110.508 71.7 107.676 63.787 A 38.631 38.631 0 0 1 106.4 59.3 Q 106.327 59.082 106.327 58.89 A 0.869 0.869 0 0 1 106.55 58.3 Q 106.9 57.9 107.5 58 A 5.416 5.416 0 0 0 108.521 58.508 Q 109.932 59.046 112.188 59.219 A 30.459 30.459 0 0 0 114.5 59.3 Q 117.625 59.3 121.063 58.089 A 30.56 30.56 0 0 0 125.3 56.2 Q 128.478 54.567 130.409 52.544 A 10.266 10.266 0 0 0 133.3 46.8 L 133.3 46.2 A 4.663 4.663 0 0 0 133.14 44.993 Q 132.72 43.42 131.2 41.9 A 9.158 9.158 0 0 0 130.886 41.561 A 6.728 6.728 0 0 0 125.9 39.4 A 14.436 14.436 0 0 0 124.253 39.499 Q 120.802 39.896 116.1 41.881 A 67.569 67.569 0 0 0 111.4 44.1 Q 112.05 42.719 116.76 37.047 A 369.92 369.92 0 0 1 119.15 34.2 A 413.894 413.894 0 0 0 119.87 33.348 Q 124.969 27.299 125.895 25.694 A 1.275 1.275 0 0 0 126.1 25.2 Q 126.1 23.897 124.044 23.655 A 8.993 8.993 0 0 0 123 23.6 A 9.049 9.049 0 0 0 122.991 23.6 Q 122.126 23.601 121.679 23.759 A 1.038 1.038 0 0 0 121.4 23.9 A 17.171 17.171 0 0 0 119.157 25.896 Q 115.224 29.926 108.253 39.922 A 409.949 409.949 0 0 0 103.7 46.6 A 418.399 418.399 0 0 0 102.238 48.803 Q 93.267 62.409 91.332 67.834 A 7.549 7.549 0 0 0 90.8 70.2 Q 90.8 72.056 92.954 73.314 A 10.201 10.201 0 0 0 94.4 74 Q 98.381 66.119 100.052 63.255 A 21.566 21.566 0 0 1 100.7 62.2 Q 103.643 68.89 107.274 71.999 Z M 417.874 71.999 A 10.297 10.297 0 0 0 424.7 74.7 Q 428.445 74.7 433.377 71.626 A 43.353 43.353 0 0 0 437.1 69 Q 441.9 65.2 447.3 58.6 Q 447.803 57.881 447.945 57.395 A 1.246 1.246 0 0 0 448 57.05 A 0.81 0.81 0 0 0 447.977 56.846 Q 447.912 56.597 447.668 56.527 A 0.792 0.792 0 0 0 447.45 56.5 Q 446.9 56.5 446.2 57.2 A 90.826 90.826 0 0 1 444.119 59.592 Q 441.846 62.112 439.644 64.142 A 46.794 46.794 0 0 1 435.05 67.9 Q 429.7 71.7 426.3 71.7 Q 421.108 71.7 418.276 63.787 A 38.631 38.631 0 0 1 417 59.3 Q 416.927 59.082 416.927 58.89 A 0.869 0.869 0 0 1 417.15 58.3 Q 417.5 57.9 418.1 58 A 5.416 5.416 0 0 0 419.121 58.508 Q 420.532 59.046 422.788 59.219 A 30.459 30.459 0 0 0 425.1 59.3 Q 428.225 59.3 431.663 58.089 A 30.56 30.56 0 0 0 435.9 56.2 Q 439.078 54.567 441.009 52.544 A 10.266 10.266 0 0 0 443.9 46.8 L 443.9 46.2 A 4.663 4.663 0 0 0 443.74 44.993 Q 443.32 43.42 441.8 41.9 A 9.158 9.158 0 0 0 441.486 41.561 A 6.728 6.728 0 0 0 436.5 39.4 A 14.436 14.436 0 0 0 434.853 39.499 Q 431.402 39.896 426.7 41.881 A 67.569 67.569 0 0 0 422 44.1 Q 422.65 42.719 427.36 37.047 A 369.92 369.92 0 0 1 429.75 34.2 A 413.894 413.894 0 0 0 430.47 33.348 Q 435.569 27.299 436.495 25.694 A 1.275 1.275 0 0 0 436.7 25.2 Q 436.7 23.897 434.644 23.655 A 8.993 8.993 0 0 0 433.6 23.6 A 9.049 9.049 0 0 0 433.591 23.6 Q 432.726 23.601 432.279 23.759 A 1.038 1.038 0 0 0 432 23.9 A 17.171 17.171 0 0 0 429.757 25.896 Q 425.824 29.926 418.853 39.922 A 409.949 409.949 0 0 0 414.3 46.6 A 418.399 418.399 0 0 0 412.838 48.803 Q 403.867 62.409 401.932 67.834 A 7.549 7.549 0 0 0 401.4 70.2 Q 401.4 72.056 403.554 73.314 A 10.201 10.201 0 0 0 405 74 Q 408.981 66.119 410.652 63.255 A 21.566 21.566 0 0 1 411.3 62.2 Q 414.243 68.89 417.874 71.999 Z M 499.4 44.8 L 492 54.4 A 209.217 209.217 0 0 1 490.531 56.205 Q 485.728 62.036 484.82 62.099 A 0.28 0.28 0 0 1 484.8 62.1 A 0.917 0.917 0 0 1 484.618 62.084 Q 484.336 62.026 484.304 61.769 A 0.56 0.56 0 0 1 484.3 61.7 A 1.757 1.757 0 0 1 484.42 61.105 Q 484.752 60.195 486 58.8 A 156.978 156.978 0 0 0 490.939 52.79 Q 495.31 47.175 497.751 42.732 A 42.618 42.618 0 0 0 498.3 41.7 A 36.758 36.758 0 0 1 499.205 38.744 Q 501.256 33 504.1 33 A 3.848 3.848 0 0 1 504.968 33.089 Q 506.4 33.422 506.4 35 Q 506.4 37 503.9 40.1 L 501.5 43.3 Q 501.5 45.4 504.6 45.4 A 5.967 5.967 0 0 0 506.252 45.151 Q 506.946 44.951 507.69 44.591 A 12.588 12.588 0 0 0 508.6 44.1 L 511.2 42.5 A 0.545 0.545 0 0 1 511.316 42.461 Q 511.516 42.414 511.935 42.403 A 10.402 10.402 0 0 1 512.2 42.4 A 1.518 1.518 0 0 1 512.853 42.559 Q 513.322 42.781 513.822 43.315 A 5.852 5.852 0 0 1 513.9 43.4 Q 514.8 44.4 514.5 45.2 L 507.6 53.9 Q 502.778 60.078 501.589 64.297 A 9.459 9.459 0 0 0 501.2 66.85 Q 501.2 71.6 505.6 71.6 A 11.305 11.305 0 0 0 508.969 71.034 Q 512.477 69.935 516.9 66.7 Q 520.9 63.8 524.2 60.2 Q 527.188 56.73 527.575 56.605 A 0.084 0.084 0 0 1 527.6 56.6 A 0.934 0.934 0 0 1 527.885 56.64 Q 528.3 56.773 528.3 57.35 Q 528.3 58.03 527.56 58.915 A 6.641 6.641 0 0 1 527.4 59.1 L 524.2 62.7 Q 521.5 65.5 518.2 68.1 Q 510.3 74 505.2 74 Q 497.808 74 497.702 65.937 A 17.979 17.979 0 0 1 497.7 65.7 A 18.812 18.812 0 0 1 498.216 61.444 Q 498.663 59.522 499.495 57.459 A 33.8 33.8 0 0 1 499.9 56.5 A 50.413 50.413 0 0 1 501.902 52.431 Q 503.029 50.391 504.246 48.71 A 29.327 29.327 0 0 1 504.7 48.1 A 4.332 4.332 0 0 1 504.321 48.157 Q 503.925 48.2 503.4 48.2 Q 501 48.2 499.4 44.8 Z M 355.9 43.6 L 357.3 43.3 A 2.79 2.79 0 0 1 358.701 43.688 A 4.059 4.059 0 0 1 359.4 44.2 Q 360.321 45.029 360.394 45.519 A 0.554 0.554 0 0 1 360.4 45.6 Q 360.4 46.036 355.681 53.056 A 719.567 719.567 0 0 1 354.2 55.25 A 97.727 97.727 0 0 0 352.093 58.486 Q 348 65.075 348 68 A 1.887 1.887 0 0 0 348.099 68.598 A 2.009 2.009 0 0 0 348.1 68.6 A 5.037 5.037 0 0 0 348.376 69.496 Q 348.576 69.968 348.859 70.281 A 1.853 1.853 0 0 0 350.3 70.9 A 6.077 6.077 0 0 0 353.098 70.017 Q 358.443 67.103 368.596 54.573 A 231.99 231.99 0 0 0 369.3 53.7 A 1.236 1.236 0 0 1 369.497 53.489 A 0.769 0.769 0 0 1 370 53.3 A 0.327 0.327 0 0 1 370.311 53.51 Q 370.384 53.664 370.397 53.931 A 2.479 2.479 0 0 1 370.4 54.05 A 1.713 1.713 0 0 1 370.312 54.563 Q 370.119 55.175 369.5 56 A 134.085 134.085 0 0 1 364.914 61.811 Q 357.483 70.669 352.531 72.577 A 7.073 7.073 0 0 1 350 73.1 A 4.802 4.802 0 0 1 348.303 72.801 A 4.406 4.406 0 0 1 348.3 72.8 A 7.425 7.425 0 0 1 345.886 71.34 Q 344.366 69.925 344.009 67.664 A 9.402 9.402 0 0 1 343.9 66.2 Q 343.9 64.5 344.3 62.8 L 338.1 68.8 A 54.89 54.89 0 0 1 335.715 70.794 Q 332.193 73.559 330.161 73.939 A 3.326 3.326 0 0 1 329.55 74 A 8.328 8.328 0 0 1 325.342 72.84 A 10.571 10.571 0 0 1 324.5 72.3 Q 321.8 70.3 321.8 67 Q 321.8 60.793 329.175 52.524 A 69.095 69.095 0 0 1 332 49.55 A 54.541 54.541 0 0 1 337.299 44.874 Q 344.458 39.4 350.7 39.4 A 7.29 7.29 0 0 1 352.298 39.562 Q 354.292 40.011 355.1 41.7 A 207.662 207.662 0 0 1 355.311 42.265 Q 355.475 42.706 355.6 43.05 A 5.65 5.65 0 0 0 355.666 43.223 Q 355.798 43.552 355.878 43.594 A 0.048 0.048 0 0 0 355.9 43.6 Z M 476.8 43.6 L 478.2 43.3 A 2.79 2.79 0 0 1 479.601 43.688 A 4.059 4.059 0 0 1 480.3 44.2 Q 481.221 45.029 481.294 45.519 A 0.554 0.554 0 0 1 481.3 45.6 Q 481.3 46.036 476.581 53.056 A 719.567 719.567 0 0 1 475.1 55.25 A 97.727 97.727 0 0 0 472.993 58.486 Q 468.9 65.075 468.9 68 A 1.887 1.887 0 0 0 468.999 68.598 A 2.009 2.009 0 0 0 469 68.6 A 5.037 5.037 0 0 0 469.276 69.496 Q 469.476 69.968 469.759 70.281 A 1.853 1.853 0 0 0 471.2 70.9 A 6.077 6.077 0 0 0 473.998 70.017 Q 479.343 67.103 489.496 54.573 A 231.99 231.99 0 0 0 490.2 53.7 A 1.236 1.236 0 0 1 490.397 53.489 A 0.769 0.769 0 0 1 490.9 53.3 A 0.327 0.327 0 0 1 491.211 53.51 Q 491.284 53.664 491.297 53.931 A 2.479 2.479 0 0 1 491.3 54.05 A 1.713 1.713 0 0 1 491.212 54.563 Q 491.019 55.175 490.4 56 A 134.085 134.085 0 0 1 485.814 61.811 Q 478.383 70.669 473.431 72.577 A 7.073 7.073 0 0 1 470.9 73.1 A 4.802 4.802 0 0 1 469.203 72.801 A 4.406 4.406 0 0 1 469.2 72.8 A 7.425 7.425 0 0 1 466.786 71.34 Q 465.266 69.925 464.909 67.664 A 9.402 9.402 0 0 1 464.8 66.2 Q 464.8 64.5 465.2 62.8 L 459 68.8 A 54.89 54.89 0 0 1 456.615 70.794 Q 453.093 73.559 451.061 73.939 A 3.326 3.326 0 0 1 450.45 74 A 8.328 8.328 0 0 1 446.242 72.84 A 10.571 10.571 0 0 1 445.4 72.3 Q 442.7 70.3 442.7 67 Q 442.7 60.793 450.075 52.524 A 69.095 69.095 0 0 1 452.9 49.55 A 54.541 54.541 0 0 1 458.199 44.874 Q 465.358 39.4 471.6 39.4 A 7.29 7.29 0 0 1 473.198 39.562 Q 475.192 40.011 476 41.7 A 207.662 207.662 0 0 1 476.211 42.265 Q 476.375 42.706 476.5 43.05 A 5.65 5.65 0 0 0 476.566 43.223 Q 476.698 43.552 476.778 43.594 A 0.048 0.048 0 0 0 476.8 43.6 Z M 76.7 7.3 A 8.053 8.053 0 0 0 73.43 8.08 Q 69.445 9.86 64.3 15.7 Q 59.2 21.6 52.35 31.55 A 498.717 498.717 0 0 1 47.402 38.612 Q 44.924 42.081 42.652 45.115 A 267.685 267.685 0 0 1 40 48.6 Q 41.3 48.9 42.9 48.9 A 24.875 24.875 0 0 0 48.918 48.108 Q 51.672 47.421 54.675 46.136 A 54.704 54.704 0 0 0 58.9 44.1 A 44.654 44.654 0 0 0 67.39 38.295 A 36.689 36.689 0 0 0 73.1 32 A 99.885 99.885 0 0 0 76.866 26.382 Q 82.17 17.803 82.2 12.758 A 9.639 9.639 0 0 0 82.2 12.7 Q 82.2 8.7 78.7 7.6 A 5.794 5.794 0 0 0 77.497 7.342 A 7.304 7.304 0 0 0 76.7 7.3 Z M 71.4 73.7 L 69.8 73.7 A 4.223 4.223 0 0 1 66.411 72.054 A 6.951 6.951 0 0 1 65.7 71 Q 64.5 69.1 64.5 66.8 A 11.974 11.974 0 0 1 65.192 63.042 Q 66.961 57.749 73.25 49.95 Q 81.404 39.839 86.649 39.15 A 5.767 5.767 0 0 1 87.4 39.1 A 6.921 6.921 0 0 1 89.449 39.377 Q 91.702 40.076 92.291 42.535 A 8.452 8.452 0 0 1 92.5 44.5 A 10.161 10.161 0 0 1 92.451 45.453 Q 92.351 46.515 92.043 47.907 A 31.944 31.944 0 0 1 92 48.1 A 0.229 0.229 0 0 0 92.129 48.219 Q 92.501 48.4 93.9 48.4 Q 95.266 48.4 97.727 47.305 A 33.388 33.388 0 0 0 99.4 46.5 A 1.463 1.463 0 0 1 98.959 47.347 Q 97.637 48.81 92.353 51.045 A 85.666 85.666 0 0 1 91.5 51.4 A 3.246 3.246 0 0 1 91.578 51.853 A 4.346 4.346 0 0 1 91.6 52.3 A 6.14 6.14 0 0 1 91.194 54.307 Q 90.113 57.36 86.153 62.433 A 90.539 90.539 0 0 1 84.9 64 Q 79.339 70.828 74.918 72.85 A 8.478 8.478 0 0 1 71.4 73.7 Z M 344.3 59.1 L 354.9 44.5 A 2.628 2.628 0 0 0 353.015 43.162 A 3.911 3.911 0 0 0 352.3 43.1 A 11.119 11.119 0 0 0 348.354 43.922 Q 344.763 45.297 340.198 48.972 A 73.474 73.474 0 0 0 336.1 52.55 A 66.77 66.77 0 0 0 332.165 56.529 Q 328.277 60.834 326.841 64.351 A 10.223 10.223 0 0 0 326 68.2 A 7.675 7.675 0 0 0 326.095 69.469 Q 326.475 71.721 328.365 71.797 A 3.333 3.333 0 0 0 328.5 71.8 A 7.889 7.889 0 0 0 331.986 70.851 Q 336.543 68.573 342.906 60.833 A 105.469 105.469 0 0 0 344.3 59.1 Z M 465.2 59.1 L 475.8 44.5 A 2.628 2.628 0 0 0 473.915 43.162 A 3.911 3.911 0 0 0 473.2 43.1 A 11.119 11.119 0 0 0 469.254 43.922 Q 465.663 45.297 461.098 48.972 A 73.474 73.474 0 0 0 457 52.55 A 66.77 66.77 0 0 0 453.065 56.529 Q 449.177 60.834 447.741 64.351 A 10.223 10.223 0 0 0 446.9 68.2 A 7.675 7.675 0 0 0 446.995 69.469 Q 447.375 71.721 449.265 71.797 A 3.333 3.333 0 0 0 449.4 71.8 A 7.889 7.889 0 0 0 452.886 70.851 Q 457.443 68.573 463.806 60.833 A 105.469 105.469 0 0 0 465.2 59.1 Z M 85.1 47.1 A 4.461 4.461 0 0 0 83.109 47.656 Q 80.531 48.966 76.853 53.362 A 66.841 66.841 0 0 0 75.45 55.1 A 69.231 69.231 0 0 0 73.015 58.399 Q 69.607 63.341 69.243 66.237 A 5.325 5.325 0 0 0 69.2 66.9 Q 69.2 70.7 71.6 70.7 Q 75.869 70.7 82.405 63.012 A 63.086 63.086 0 0 0 82.5 62.9 A 73.945 73.945 0 0 0 85.031 59.752 Q 88.526 55.129 89.019 52.507 A 4.38 4.38 0 0 0 89.1 51.7 A 5.116 5.116 0 0 1 88.194 51.024 Q 86.863 49.817 85.1 47.1 Z M 128.5 44.1 A 1.595 1.595 0 0 0 128.302 43.35 Q 128.171 43.101 127.952 42.852 A 4.03 4.03 0 0 0 127.6 42.5 A 3.559 3.559 0 0 0 126.896 42.005 A 2.538 2.538 0 0 0 125.7 41.7 A 16.453 16.453 0 0 0 121.541 42.281 Q 117.587 43.317 112.75 46.2 A 30.676 30.676 0 0 0 108.783 48.978 Q 106.803 50.632 105.502 52.425 A 13.16 13.16 0 0 0 103.5 56.4 A 12.047 12.047 0 0 1 103.943 56.411 Q 105.131 56.456 108.3 56.7 A 14.761 14.761 0 0 0 111.386 56.339 Q 114.525 55.663 118.62 53.726 A 60.784 60.784 0 0 0 120.1 53 Q 128.5 48.8 128.5 44.1 Z M 439.1 44.1 A 1.595 1.595 0 0 0 438.902 43.35 Q 438.771 43.101 438.552 42.852 A 4.03 4.03 0 0 0 438.2 42.5 A 3.559 3.559 0 0 0 437.496 42.005 A 2.538 2.538 0 0 0 436.3 41.7 A 16.453 16.453 0 0 0 432.141 42.281 Q 428.187 43.317 423.35 46.2 A 30.676 30.676 0 0 0 419.383 48.978 Q 417.403 50.632 416.102 52.425 A 13.16 13.16 0 0 0 414.1 56.4 A 12.047 12.047 0 0 1 414.543 56.411 Q 415.731 56.456 418.9 56.7 A 14.761 14.761 0 0 0 421.986 56.339 Q 425.125 55.663 429.22 53.726 A 60.784 60.784 0 0 0 430.7 53 Q 439.1 48.8 439.1 44.1 Z M 14.9 58.55 A 91.188 91.188 0 0 0 16.108 60.863 Q 18.063 64.474 19.9 67 A 28.419 28.419 0 0 1 18 69.188 A 33.462 33.462 0 0 1 13.75 72.9 A 24.827 24.827 0 0 1 13.12 73.351 Q 11.124 74.734 9.458 75.266 A 6.446 6.446 0 0 1 7.5 75.6 Q 4.575 75.6 4.027 71.738 A 14.22 14.22 0 0 1 3.9 69.75 A 33.481 33.481 0 0 1 4.126 65.884 A 38.44 38.44 0 0 1 6 57.8 A 42.507 42.507 0 0 1 6.616 56.119 Q 8.367 51.656 9.9 51.4 L 10.3 51.4 Q 10.6 51.4 11.45 52.4 A 2.712 2.712 0 0 1 11.473 52.428 Q 12.335 53.47 14.9 58.55 Z M 162.523 67.174 A 26.846 26.846 0 0 0 167.5 75.3 A 25.344 25.344 0 0 1 167.245 75.216 Q 162.825 73.722 160.2 71 Q 154.8 65.5 154.8 57.8 A 14.427 14.427 0 0 1 154.838 56.735 Q 154.962 55.052 155.5 53.9 A 10.75 10.75 0 0 1 155.72 53.455 Q 156.097 52.736 156.473 52.322 A 2.18 2.18 0 0 1 156.9 51.95 Q 157.6 51.5 158.4 51.5 Q 159.2 51.5 160.1 57.8 Q 160.85 63.003 162.523 67.174 Z" vector-effect="non-scaling-stroke"/></g></svg>