<svg xmlns:dc="http://purl.org/dc/elements/1.1/" xmlns:cc="http://creativecommons.org/ns#" xmlns:rdf="http://www.w3.org/1999/02/22-rdf-syntax-ns#" xmlns:svg="http://www.w3.org/2000/svg" xmlns="http://www.w3.org/2000/svg" xmlns:sodipodi="http://sodipodi.sourceforge.net/DTD/sodipodi-0.dtd" xmlns:inkscape="http://www.inkscape.org/namespaces/inkscape" stroke= "#fed136" fill="#fed136" viewBox="0 0 135.467 135" version="1.1" x="0px" y="0px"><g transform="translate(0,-161.535)"><path style="opacity:100;fill:#fed136;fill-opacity:1;fill-rule:nonzero;stroke:nonzero;stroke-width:1;stroke-linecap:butt;stroke-linejoin:round;stroke-miterlimit:4;stroke-dasharray:none;stroke-dashoffset:0;stroke-opacity:1;paint-order:markers fill stroke" d="m 38.0953,165.104 c -6.217,0 -11.239,5.027 -11.239,11.244 v 105.839 c 0,6.219 5.022,11.245 11.239,11.245 h 59.273 c 6.2097,0 11.2397,-5.026 11.2397,-11.245 v -97.311 a 0.661529,0.661529 0 0 0 -0.19,-0.529 l -9.5257,-9.525 -9.525,-9.525 a 0.661529,0.661529 0 0 0 -0.101,-0.08 0.661529,0.661529 0 0 0 -0.06,-0.03 0.661529,0.661529 0 0 0 -0.06,-0.03 0.661529,0.661529 0 0 0 -0.06,-0.02 0.661529,0.661529 0 0 0 -0.13,-0.02 0.661529,0.661529 0 0 0 -0.06,0 z m 0,1.325 h 50.142 v 7.802 c 0,6.218 5.03,11.246 11.25,11.246 h 7.8007 V 267.37 H 28.1763 v -91.02 c 0,-5.508 4.411,-9.92 9.919,-9.921 z M 33.1403,274 c 0.214,0 0.397,0.03 0.545,0.103 0.156,0.07 0.288,0.163 0.399,0.281 0.119,0.118 0.236,0.269 0.355,0.457 0.122,0.185 0.246,0.38 0.376,0.584 l 4.569,6.916 v -6.981 c 0,-0.452 0.1,-0.791 0.288,-1.016 0.199,-0.23 0.463,-0.345 0.794,-0.345 0.341,0 0.611,0.115 0.807,0.345 0.199,0.224 0.296,0.563 0.296,1.016 v 9.231 c 0,1.029 -0.426,1.546 -1.28,1.546 -0.212,0 -0.405,-0.03 -0.577,-0.09 -0.169,-0.06 -0.331,-0.157 -0.479,-0.289 -0.151,-0.132 -0.288,-0.288 -0.415,-0.466 -0.13,-0.179 -0.257,-0.365 -0.387,-0.55 l -4.458,-6.837 v 6.877 c 0,0.447 -0.103,0.786 -0.312,1.016 -0.209,0.23 -0.474,0.344 -0.799,0.344 -0.339,0 -0.606,-0.114 -0.81,-0.344 -0.203,-0.236 -0.304,-0.574 -0.304,-1.016 v -9.055 c 0,-0.384 0.04,-0.685 0.127,-0.904 0.103,-0.24 0.27,-0.435 0.506,-0.585 0.235,-0.154 0.489,-0.232 0.759,-0.232 z m 16.195,0 c 1.217,0 2.262,0.25 3.13,0.745 0.876,0.49 1.537,1.192 1.987,2.105 0.447,0.907 0.672,1.976 0.672,3.202 0,0.909 -0.124,1.731 -0.368,2.474 -0.246,0.741 -0.614,1.385 -1.106,1.929 -0.492,0.545 -1.095,0.96 -1.809,1.248 -0.715,0.289 -1.535,0.432 -2.458,0.432 -0.916,0 -1.739,-0.146 -2.466,-0.439 -0.725,-0.299 -1.331,-0.72 -1.815,-1.257 -0.487,-0.54 -0.855,-1.188 -1.106,-1.945 -0.246,-0.759 -0.368,-1.577 -0.368,-2.458 0,-0.902 0.127,-1.73 0.384,-2.482 0.262,-0.753 0.637,-1.393 1.129,-1.922 0.49,-0.528 1.088,-0.931 1.794,-1.208 0.704,-0.283 1.503,-0.425 2.4,-0.424 z m 41.669,0 c 0.368,0 0.659,0.12 0.871,0.36 0.219,0.24 0.328,0.601 0.328,1.08 v 6.149 c 0,0.532 -0.03,0.987 -0.07,1.36 -0.04,0.373 -0.143,0.755 -0.304,1.138 -0.268,0.645 -0.707,1.148 -1.321,1.511 -0.613,0.359 -1.36,0.537 -2.241,0.537 -0.796,0 -1.46,-0.125 -1.995,-0.376 -0.526,-0.25 -0.955,-0.656 -1.28,-1.216 -0.169,-0.298 -0.31,-0.642 -0.416,-1.031 -0.105,-0.39 -0.161,-0.762 -0.161,-1.114 0,-0.373 0.106,-0.659 0.315,-0.858 0.206,-0.197 0.474,-0.293 0.799,-0.293 0.315,0 0.553,0.09 0.712,0.269 0.161,0.183 0.283,0.467 0.367,0.849 0.09,0.411 0.183,0.738 0.273,0.985 0.09,0.246 0.243,0.457 0.458,0.633 0.214,0.177 0.516,0.264 0.913,0.264 1.05,0 1.576,-0.769 1.576,-2.312 v -6.493 c 0,-0.481 0.104,-0.84 0.313,-1.08 0.211,-0.241 0.5,-0.361 0.865,-0.361 z m 8.02,0 c 0.722,0 1.3417,0.09 1.8657,0.274 0.529,0.175 0.966,0.413 1.313,0.711 0.346,0.293 0.6,0.603 0.762,0.928 0.158,0.325 0.24,0.643 0.24,0.952 0,0.284 -0.103,0.538 -0.307,0.769 -0.195,0.226 -0.444,0.337 -0.743,0.337 -0.273,0 -0.479,-0.07 -0.625,-0.202 -0.137,-0.137 -0.291,-0.363 -0.455,-0.672 -0.214,-0.443 -0.471,-0.786 -0.77,-1.032 -0.299,-0.251 -0.7777,-0.377 -1.4397,-0.377 -0.614,0 -1.111,0.136 -1.489,0.408 -0.374,0.267 -0.561,0.59 -0.561,0.969 0,0.235 0.06,0.439 0.193,0.608 0.127,0.173 0.304,0.318 0.526,0.442 0.225,0.122 0.453,0.217 0.683,0.289 0.227,0.07 0.608,0.169 1.135,0.304 0.6617,0.153 1.2597,0.325 1.7947,0.511 0.54,0.187 0.995,0.412 1.368,0.68 0.381,0.267 0.672,0.605 0.881,1.018 0.214,0.405 0.32,0.902 0.32,1.495 0,0.712 -0.183,1.349 -0.553,1.913 -0.363,0.566 -0.897,1.011 -1.601,1.331 -0.704,0.32 -1.54,0.479 -2.5057,0.479 -1.157,0 -2.112,-0.217 -2.866,-0.656 -0.534,-0.315 -0.968,-0.733 -1.304,-1.257 -0.331,-0.529 -0.498,-1.04 -0.498,-1.537 0,-0.289 0.101,-0.535 0.297,-0.736 0.203,-0.209 0.46,-0.312 0.77,-0.312 0.251,0 0.46,0.08 0.632,0.241 0.175,0.158 0.325,0.396 0.447,0.711 0.151,0.373 0.31,0.686 0.482,0.937 0.174,0.251 0.42,0.459 0.735,0.625 0.315,0.159 0.728,0.24 1.241,0.24 0.704,0 1.2757,-0.163 1.7157,-0.488 0.441,-0.331 0.664,-0.74 0.664,-1.233 0,-0.389 -0.122,-0.704 -0.363,-0.945 -0.233,-0.245 -0.539,-0.43 -0.918,-0.56 -0.3767,-0.127 -0.8767,-0.264 -1.5057,-0.407 -0.844,-0.199 -1.551,-0.426 -2.122,-0.688 -0.567,-0.267 -1.016,-0.627 -1.352,-1.082 -0.331,-0.458 -0.498,-1.027 -0.498,-1.704 0,-0.646 0.178,-1.22 0.529,-1.721 0.352,-0.502 0.86,-0.886 1.53,-1.153 0.666,-0.272 1.45,-0.409 2.352,-0.41 z m -40.378,0.199 h 3.098 c 0.807,0 1.498,0.07 2.074,0.226 0.574,0.149 1.098,0.428 1.569,0.839 1.22,1.046 1.834,2.637 1.834,4.772 0,0.704 -0.06,1.347 -0.185,1.929 -0.125,0.582 -0.313,1.106 -0.569,1.577 -0.257,0.463 -0.585,0.881 -0.984,1.249 -0.315,0.283 -0.659,0.51 -1.032,0.68 -0.376,0.173 -0.778,0.291 -1.209,0.359 -0.429,0.07 -0.911,0.106 -1.45,0.106 h -3.099 c -0.431,0 -0.756,-0.07 -0.976,-0.193 -0.22,-0.135 -0.362,-0.317 -0.431,-0.553 -0.07,-0.241 -0.1,-0.55 -0.1,-0.928 v -8.606 c 0,-0.512 0.116,-0.882 0.346,-1.112 0.228,-0.23 0.598,-0.345 1.112,-0.345 z m 12.12,0 h 6.276 c 0.379,0 0.659,0.09 0.842,0.257 0.185,0.166 0.277,0.385 0.277,0.656 0,0.277 -0.09,0.503 -0.277,0.674 -0.183,0.165 -0.463,0.247 -0.842,0.247 h -5.355 v 2.881 h 4.929 c 0.365,0 0.635,0.08 0.81,0.249 0.182,0.161 0.272,0.373 0.272,0.64 0,0.268 -0.09,0.487 -0.264,0.656 -0.177,0.167 -0.447,0.25 -0.818,0.25 h -4.929 v 3.339 h 5.54 c 0.374,0 0.654,0.09 0.839,0.262 0.193,0.173 0.289,0.401 0.289,0.69 0,0.278 -0.09,0.502 -0.289,0.68 -0.185,0.169 -0.465,0.256 -0.839,0.256 h -6.461 c -0.518,0 -0.891,-0.116 -1.122,-0.344 -0.224,-0.23 -0.336,-0.6 -0.336,-1.114 v -8.822 c 0,-0.341 0.05,-0.619 0.154,-0.832 0.1,-0.219 0.257,-0.375 0.471,-0.471 0.219,-0.101 0.497,-0.154 0.833,-0.154 z m -21.431,1.69 c -0.474,0 -0.915,0.09 -1.32,0.272 -0.4,0.177 -0.746,0.435 -1.04,0.778 -0.288,0.342 -0.519,0.779 -0.688,1.313 -0.167,0.529 -0.249,1.125 -0.249,1.786 0,0.666 0.08,1.269 0.249,1.807 0.169,0.54 0.407,0.99 0.712,1.347 0.309,0.351 0.661,0.615 1.055,0.791 0.4,0.177 0.839,0.264 1.313,0.264 0.608,0 1.167,-0.151 1.675,-0.454 0.51,-0.306 0.918,-0.777 1.217,-1.411 0.304,-0.635 0.455,-1.416 0.455,-2.344 0,-0.861 -0.138,-1.603 -0.416,-2.233 -0.277,-0.63 -0.674,-1.106 -1.193,-1.426 -0.513,-0.327 -1.103,-0.488 -1.77,-0.49 z m 10.231,0.192 v 7.967 h 1.802 c 0.395,0 0.704,0 0.929,-0.03 0.222,-0.03 0.455,-0.07 0.696,-0.159 0.241,-0.09 0.447,-0.207 0.624,-0.36 0.797,-0.674 1.194,-1.832 1.194,-3.474 0,-1.159 -0.178,-2.026 -0.53,-2.603 -0.346,-0.575 -0.778,-0.941 -1.288,-1.097 -0.513,-0.161 -1.133,-0.24 -1.858,-0.24 z m 21.966,7.643 c 0.336,0 0.622,0.119 0.857,0.355 0.241,0.227 0.36,0.508 0.36,0.839 0,0.381 -0.119,0.68 -0.36,0.897 -0.235,0.214 -0.513,0.32 -0.833,0.32 -0.331,0 -0.616,-0.106 -0.855,-0.32 -0.24,-0.212 -0.362,-0.511 -0.362,-0.897 0,-0.326 0.116,-0.606 0.347,-0.839 0.227,-0.236 0.51,-0.355 0.846,-0.355 z"/></g></svg>