<?xml version="1.0" encoding="utf-8"?>
<!-- Svg Vector Icons : http://www.onlinewebfonts.com/icon -->
<!DOCTYPE svg PUBLIC "-//W3C//DTD SVG 1.1//EN" "http://www.w3.org/Graphics/SVG/1.1/DTD/svg11.dtd">
<svg version="1.1" xmlns="http://www.w3.org/2000/svg" xmlns:xlink="http://www.w3.org/1999/xlink" x="0px" y="0px" stroke="#fed136" fill="#fed136" viewBox="0 0 1000 1000" enable-background="new 0 0 1000 1000" xml:space="preserve">
<metadata> Svg Vector Icons : http://www.onlinewebfonts.com/icon </metadata>
<g><path d="M406.2,496.5c1.8-27.5,23.9-48.2,49.4-46.2c25.5,1.9,44.7,25.7,42.9,53.2c-1.8,27.5-23.9,48.2-49.4,46.2c-23-1.7-41.3-21.5-42.9-46.2V496.5z"/><path d="M816.2,329.7l-13.9,41.7l0,0h-7l-7-7h-7l-6.9-7h-13.9h-7l-6.9-7h-6.9h-7l-13.9-7H712h-7l-13.9-7h-6.9h-7h-13.9h-6.9l-13.9-7h-7h-6.9h-13.9h-7l-13.9-7h-7H573H566h-13.9h-7h-13.9h-7h-13.9h-13.9v-48.7h13.9h13.9h7h13.9h7H566h13.9h7l13.9,7h6.9h13.9h6.9h13.9l7,7h13.9h7h13.9h6.9l6.9,7H712h6.9l13.9,7h7h6.9l6.9,7h13.9h7l6.9,7h13.9l7,7h6.9L816.2,329.7L816.2,329.7z M990,496.5h-41.7l0,0l0,0l0,0v-7l0,0v-6.9l0,0l-7-7v-7l0,0l-7-7l0,0l-6.9-7v-7h-6.9v-7l-7-7h-7v-7h-6.9l-6.9-7l-7-7h-7l-6.9-7l-6.9-7h-7l-7-7h-7l-6.9-7h-6.9l-7-7h-13.9l-6.9-7l13.9-41.7h7l13.9,7h6.9l7,7h13.9l6.9,7l6.9,7h7l7,7l6.9,7h6.9l7,7l7,6.9l6.9,7h6.9l7,7l7,7l6.9,7v7h6.9l7,7v7l7,7v7l7,7v7v7l6.9,7l0,0v7v6.9V496.5L990,496.5z M802.3,677.2l-7-41.7l0,0l7-7h6.9l13.9-6.9h7l6.9-6.9l6.9-7h7l7-7h13.9l7-6.9l7-6.9l0,0l7-7l6.9-7h6.9l7-7v-6.9h7l6.9-6.9v-7h6.9v-7l7-6.9l0,0v-6.9h7v-7v-7l0,0v-6.9l0,0v-7H990v7v6.9v7v13.9H983v6.9v7l-6.9,7v6.9l-7,6.9l-7,7v7l-6.9,7l-6.9,6.9h-7v6.9l-7,7l-6.9,7l-6.9,6.9h-7l-7,6.9l-6.9,7l-13.9,7h-7l-7,6.9l-6.9,6.9H851l-7,7l-6.9,7h-13.9l-7,7H802.3L802.3,677.2L802.3,677.2z M496.5,725.9v-48.7l0,0h13.9h6.9h13.9h6.9h13.9h7H573h7h13.9h6.9h7l13.9-7h6.9h13.9h7h6.9l13.9-7h7h6.9h6.9H705l7-7h6.9h6.9l13.9-6.9h6.9h6.9l7-6.9h7h6.9l6.9-7h13.9l7,41.7l-7,6.9h-7l-7,6.9h-6.9h-6.9l-13.9,7h-6.9h-6.9l-13.9,7h-6.9H712l-7,6.9h-13.9h-6.9h-13.9h-7l-6.9,6.9h-13.9h-7h-13.9h-7h-13.9l-6.9,7h-6.9H573H566h-13.9h-7h-13.9h-7h-13.9H496.5L496.5,725.9L496.5,725.9z M190.7,677.2l13.9-41.7l0,0h7l7,7h7h7l7,6.9h7h13.9l7,6.9h7h7l7,7h13.9h7h7l13.9,7h7h13.9h7h7h13.9l7,7h13.9h7h7H427h7h13.9h7h13.9h7h13.9h7v48.7h-7h-13.9h-7h-13.9h-7H434h-7h-13.9h-7h-13.9l-7-7h-13.9h-7h-13.9h-7h-13.9l-7-6.9h-7h-13.9h-7l-13.9-6.9h-7h-7l-13.9-7h-7h-7l-7-7h-13.9h-7l-7-7h-7L190.7,677.2L190.7,677.2L190.7,677.2z M10,496.5h41.7l0,0v7l0,0v6.9l0,0v7v7h7v6.9l0,0l7,6.9v7h7v7l7,6.9l0,0l7,6.9l7,7h7v7l7,6.9h7l7,6.9l7,7h7l7,7h7l7,7l7,6.9h13.9l7,6.9h7l13.9,7l-13.9,41.7h-13.9l-7-6.9H156l-7-7l-7-7h-7l-13.9-6.9l-7-6.9h-7l-7-7l-7-7l-7-6.9h-7l-7-6.9l-7-7l-7-7l-7-7v-6.9h-7l-7-7l-7-7v-7l-7-6.9v-6.9l-7-7v-7v-6.9l-7-6.9v-7v-7v-6.9V496.5L10,496.5L10,496.5z M176.8,329.7l13.9,41.7l0,0l-7,7h-7l-7,7H156l-7,7h-7l-7,7l-7,7h-7l-7,7h-7v7l-7,7h-7l-7,7v7h-7l-7,7l0,0l-7,7v7l0,0l-7,7l0,0v7h-7v7v7l0,0v7l0,0l0,0H10v-7v-7l0,0v-7l7-7v-7v-7l7-7v-7l7-7v-7h7l7-7v-7l7-7l7-7h7v-6.9l7-7l7-7h7l7-7l7-7h7l7-7l13.9-7h7l7-7l7-7h13.9l7-7H176.8L176.8,329.7L176.8,329.7z M496.5,274.1v48.7l0,0h-7h-13.9h-7h-13.9h-7H434h-7h-13.9h-7l-13.9,7h-7h-13.9h-7h-13.9l-7,7h-13.9h-7h-7l-13.9,7h-7h-7h-13.9l-7,7h-7h-13.9l-7,7h-7l-7,7h-7h-13.9l-7,7h-7l-13.9-41.7l7-7h13.9l7-7h7h7l13.9-7h7l7-7h13.9h7l7-7H288h7h13.9l7-7h7h13.9h7l13.9-7h7h13.9h13.9h7l13.9-7h7H434h7h13.9h13.9h7h13.9H496.5L496.5,274.1L496.5,274.1z"/><path d="M524.3,100.4l27.8,41.7l0,0h-7l-6.9,7l-6.9,7v7l-7,7l-7,7l-6.9,7l-6.9,7l-7,7l-6.9,6.9l-7,7v13.9l-7,7l-7,7l-7,7l-7,7l-7,13.9l-7,7l-7,7V295l-7,7l-7,7l-7,13.9l-7,7l-7,7v13.9l-7,7l-7,13.9l-7,7l-7,13.9v7l-7,13.9l-41.7-27.8l7-7l7-13.9l7-7l7-13.9l7-7v-13.9l7-7l7-13.9l7-7l7-13.9l7-7l7-13.9l7-7l7-7v-13.9l7-7l7-7l7-7l7-13.9l7-7l7-7l7-7l7-7l7-7l7-13.9l7-7v-7l7-7l7-7l6.9-7l6.9-6.9L524.3,100.4L524.3,100.4L524.3,100.4z M746.7,17l-20.9,41.7l0,0h-6.9l0,0l0,0l-6.9-7l0,0h-7l0,0h-7h-6.9l0,0h-6.9l-7,7l0,0h-7h-7l-6.9,7h-6.9l0,0l-7,7h-7l-6.9,7h-6.9l-7,7l-7,7h-6.9l-6.9,7l-7,7l-7,6.9l-7,7l-6.9,7l-6.9,7l-7,7l-27.8-41.7l7-7l6.9-7l6.9-7l7-7l13.9-7h6.9l7-7l7-7l7-7h6.9l6.9-7l7-7h7l6.9-7h6.9l7-7h7l6.9-7h6.9h7h7h7l6.9-7h6.9h7h7l6.9,7l0,0h6.9h7l7,7H746.7L746.7,17L746.7,17z M788.4,288l-41.7-7l0,0l6.9-13.9v-7v-13.9v-7v-13.9l7-7v-13.9v-7v-7v-13.9v-7v-7v-7v-13.9l-7-7v-7v-7v-7v-6.9h-6.9v-7v-7v-7h-6.9v-7v-7h-7v-7l0,0h-7v-7l0,0L746.7,17v6.9h6.9l7,7l7,7v7h6.9v7l6.9,7v7l7,7v7v7l7,13.9v7v7v7v7l7,13.9v7v7v13.9v7v13.9v7v13.9v7l-7,13.9v13.9v7v13.9v13.9L788.4,288L788.4,288z M670.3,614.7l-34.8-27.8l0,0l7-7l7-7v-13.9l6.9-6.9l6.9-13.9v-6.9l7-13.9l7-7v-13.9l6.9-7l6.9-13.9v-7l7-7v-13.9l7-7V427l7-7v-7l6.9-13.9v-7l6.9-13.9v-7l7-7v-13.9v-7l7-7v-13.9v-7l6.9-7v-7V288v-7l41.7,7v13.9v7l-7,7v13.9v7l-6.9,13.9v7v7l-6.9,13.9v7l-7,13.9v7l-7,7V427l-6.9,7v13.9l-6.9,7v13.9l-7,7v13.9l-7,7l-6.9,13.9v7l-6.9,13.9l-7,6.9v13.9l-7,6.9l-7,13.9v7l-6.9,13.9l-6.9,6.9L670.3,614.7L670.3,614.7L670.3,614.7z M482.6,892.7l-27.8-34.8l0,0l7-6.9l0,0l7-7l7-7l7-6.9l7-6.9l7-7l7-7v-6.9l6.9-6.9l7-13.9l7-6.9l7-6.9l6.9-7v-7l6.9-7l7-13.9l7-7l6.9-7L573,705v-7l7-7l7-13.9l6.9-7l6.9-7l7-13.9v-6.9l7-13.9l7-6.9l6.9-13.9v-7l6.9-13.9l34.8,27.8v6.9l-7,13.9l-6.9,7l-6.9,13.9l-7,7v13.9l-7,6.9l-6.9,13.9l-6.9,7l-7,13.9l-7,7v7l-7,13.9l-6.9,7l-6.9,7l-7,13.9l-7,6.9l-6.9,7l-6.9,7v13.9l-7,7l-7,7l-6.9,6.9l-6.9,6.9l-7,7l-7,7l-6.9,13.9l-6.9,7v7l-7,7h-7L482.6,892.7L482.6,892.7L482.6,892.7z M253.3,983l20.9-41.7l0,0l0,0h7l0,0l7,6.9l0,0h7l0,0h7h7l0,0h7l7-6.9l0,0h7h7l7-7h7h7l7-7h7l7-6.9h7v-6.9l7-7h7l13.9-7l7-6.9l7-6.9l7-7l7-7l7-7l7-6.9l27.8,34.7l-7,13.9l-13.9,7l-7,6.9l-7,6.9l-7,7h-7l-7,7l-7,6.9l-7,6.9l-13.9,7h-7l-7,7h-7l-7,7h-7l-7,6.9h-7l-7,6.9h-7h-7h-7l-7,7h-7h-7h-7h-7l-7-7h-7h-7l0,0l-7-6.9H253.3L253.3,983z M204.6,725.9l41.7,13.9l0,0v6.9v13.9v6.9l-7,6.9v13.9v7v6.9v13.9v7v6.9v6.9v7v13.9v6.9l7,7v7v7l0,0v6.9v6.9l7,7v7l0,0v6.9h7v6.9l0,0l7,7l0,0l0,0l7,7l0,0L253.3,983l-7-6.9l0,0l-7-7l-7-7l0,0l-7-7v-6.9l-7-6.9v-7l-7-7v-6.9v-6.9l-7-7v-7v-6.9v-6.9v-7l-7-13.9v-6.9V851v-7v-13.9v-6.9v-7v-13.9v-6.9v-13.9v-7l7-13.9v-7v-13.9V725.9L204.6,725.9z M322.8,385.3l41.7,27.8l0,0l-7,7l-7,13.9l-7,7v13.9l-7,7l-7,13.9v13.9l-7,7l-7,13.9v7l-7,13.9l-7,6.9v13.9l-7,6.9V573l-7,7v13.9l-7,7v13.9l-7,6.9v13.9l-7,7v13.9v7l-7,7v13.9v7l-7,7V712v6.9l-7,7v13.9l-41.7-13.9l7-7V712v-13.9v-7l7-13.9v-6.9v-13.9l7-6.9v-13.9l7-7v-13.9l7-7v-13.9l7-6.9V573l7-7v-13.9l7-7v-13.9l7-13.9v-7l7-13.9l7-7v-13.9l7-7l7-13.9l7-13.9v-7l7-13.9l7-13.9l7-7V385.3L322.8,385.3z"/><path d="M204.6,281.1l41.7-13.9l0,0l7,7V288v7v7l7,13.9v7v7l7,13.9v7l7,13.9v7v7l7,13.9v7l7,13.9v7l7,13.9v7l7,13.9l7,7v13.9l7,7v13.9l7,7l7,13.9v7l7,13.9l7,7v13.9l7,6.9l7,13.9l7,7l-34.8,27.8l-7-13.9l-7-6.9l-7-13.9l-7-7v-13.9l-7-13.9l-7-7v-13.9l-7-7l-7-13.9v-7l-7-13.9l-7-13.9v-7l-7-13.9v-7l-7-13.9v-7l-7-13.9v-7l-7-13.9v-7l-7-13.9v-7v-13.9l-7-7v-13.9v-7l-7-7V295v-7L204.6,281.1L204.6,281.1z M253.3,17l20.9,41.7l0,0v7h-7l0,0v7h-7l0,0v7l-7,7l0,0v7v7h-7v7v6.9v7v7l-7,7v7v7v7v7v7v13.9v7v7v13.9v7l7,7v13.9v7v13.9v7l-41.7,13.9v-13.9v-13.9v-7v-13.9l-7-7v-13.9v-7v-13.9v-7v-13.9v-7v-7v-13.9v-7v-7l7-7v-13.9v-7v-7l7-7v-7v-7l7-7v-7l7-7l0,0l7-7v-7l7-7l0,0l7-7L253.3,17L253.3,17z M253.3,17L253.3,17l-27.8,20.9L253.3,17z M482.6,114.3L454.8,149l0,0l-7-7l-7-7l-7-7l-7-7l-7-7l-7-6.9l-7-7l-7-7h-7l-7-7l-7-7h-7l-7-7h-7l-7-7h-7h-7l-7-7h-7l0,0h-7h-7v-7h-7h-7l0,0l-7,7l0,0h-7l0,0h-7l0,0L253.3,17h7h7v-7h7h7h7h7h7h7h7h7h7h7l7,7h7l7,6.9h7l7,7h7l7,7h13.9l7,7l7,7l7,7h7l7,7l7,7l13.9,7l7,7l7,7l7,7L482.6,114.3L482.6,114.3z M670.3,385.3l-34.8,27.8l0,0l-6.9-13.9v-6.9l-6.9-13.9l-7-7l-7-7v-13.9l-6.9-7l-6.9-13.9l-7-7l-7-7v-13.9l-7-7l-6.9-7l-6.9-7l-7-13.9v-7l-7-7l-6.9-7l-6.9-7l-7-7l-7-13.9v-7l-6.9-7l-6.9-7l-7-7l-7-7l-7-7l-7-7v-7l-7-7h-7l-7-7l27.8-34.8l7,7h7l7,7l6.9,7l6.9,7l7,7v13.9l7,7l6.9,7l6.9,7l7,7l7,7l6.9,7l6.9,13.9v7l7,7l7,7l7,13.9l6.9,7l6.9,7l7,13.9v7l7,7l6.9,13.9l6.9,7l7,7v13.9l7,7l6.9,13.9l6.9,7l7,13.9V385.3L670.3,385.3L670.3,385.3z M635.5,413.1L635.5,413.1L635.5,413.1L635.5,413.1z M795.4,718.9l-41.7,7l0,0v-7l-6.9-13.9v-7v-7l-6.9-6.9v-13.9v-7l-7-13.9v-6.9v-7l-7-13.9v-6.9l-6.9-7v-13.9l-6.9-6.9V573l-7-7v-13.9l-7-7l-6.9-7v-13.9l-6.9-7v-13.9l-7-7l-7-13.9v-7l-7-13.9l-6.9-7l-6.9-13.9v-7l-7-13.9l-7-7l34.8-27.8l7,13.9l7,7l6.9,13.9v7l6.9,13.9l7,7l7,13.9v13.9l6.9,7l6.9,13.9v7l7,13.9l7,7v13.9l6.9,7v13.9l6.9,6.9v13.9l7,7v13.9l7,7v13.9l6.9,6.9v7v13.9l6.9,6.9v13.9l7,7v6.9v13.9v7L795.4,718.9L795.4,718.9z M746.7,983l-20.9-41.7l0,0l0,0v-7h7l0,0v-7h7v-6.9l0,0l6.9-6.9v-7l0,0l6.9-7v-6.9v-6.9v-7v-7l7-6.9v-6.9v-7v-7v-13.9v-6.9v-7v-7v-13.9v-7v-13.9v-6.9l-7-7v-13.9v-13.9v-7l41.7-7v7v13.9v13.9l7,7v13.9v6.9v13.9v6.9v13.9v7v13.9v7v7v13.9v6.9l-7,7v13.9v6.9v7l-7,7v6.9v6.9l-7,7v7l-6.9,7v6.9l-6.9,7l0,0l-7,7l-7,7l0,0L746.7,983L746.7,983z M746.7,983L746.7,983l27.8-20.9L746.7,983z M531.3,899.6l27.8-34.8l0,0l6.9,7l6.9,7l7,7l7,6.9l6.9,6.9l0,0l6.9,7l7,7h7l7,6.9h6.9l6.9,6.9h7l7,7h6.9v7h6.9h7h7l6.9,6.9l0,0h6.9h7l0,0h7l0,0h7l0,0h6.9v-6.9l0,0h6.9l20.9,41.7h-6.9l-7,6.9h-7l0,0h-6.9l-6.9,7h-7h-7h-7h-6.9l-6.9-7h-7h-7h-6.9l-6.9-6.9h-7h-7l-6.9-6.9h-6.9l-7-7h-7l-7-7l-6.9-7h-7l-7-6.9l-7-6.9l-6.9-7l-6.9-7l-7-6.9l-7-6.9l-6.9-7L531.3,899.6L531.3,899.6z M329.7,614.7l34.8-27.8l0,0l7,13.9v13.9l7,6.9l7,13.9l7,7l7,6.9v13.9l7,7l7,13.9l7,6.9l7,13.9l7,6.9l7,6.9l7,13.9v6.9l7,6.9l7,7l7,13.9l7,6.9l7,7l7,7l7,7l7,6.9v6.9l6.9,7l7,7l7,6.9l7,6.9l6.9,7l6.9,7l7,6.9l7,6.9l-27.8,34.8l-7-6.9l-7-6.9l-7-7l-6.9-7l-7-7l-7-6.9l-7-6.9l-7-7l-7-7l-7-6.9l-7-6.9l-7-13.9l-7-6.9l-7-6.9v-7l-7-13.9l-7-6.9l-7-7l-7-13.9l-7-6.9l-7-6.9l-7-13.9l-7-6.9l-7-13.9l-7-7v-13.9l-7-7l-7-13.9l-7-6.9l-7-13.9l-7-13.9V614.7L329.7,614.7L329.7,614.7z"/></g>
</svg>